<svg width="268" height="231" viewBox="0 0 268 231" fill="none" xmlns="http://www.w3.org/2000/svg">
<g clip-path="url(#clip0)">
<path opacity="0.1" d="M22.9346 152.264C35.3838 164.154 38.6234 183.921 38.6011 200.175C38.6011 205.617 38.4584 211.397 41.0182 216.818C44.1487 223.449 50.4992 227.645 56.3153 229.477C66.9154 232.815 77.328 229.939 83.4239 221.994C88.6918 215.126 90.7396 205.007 96.2145 198.379C105.377 187.29 122.031 188.244 137.339 192.407C148.174 195.352 160.327 199.493 168.087 193.347C173.562 189.027 175.45 180.327 175.123 171.497C174.964 167.231 174.365 162.679 175.568 159.085C176.284 156.947 177.596 155.299 179.02 153.859C192.04 140.71 214.734 142.982 226.901 128.764C235.117 119.163 237.131 103.217 235.078 87.2566C233.025 71.2964 227.295 55.1403 221.241 39.3284C216.939 28.0989 211.945 16.1728 203.415 8.34237C194.393 0.0587222 183.023 -1.72893 174.359 1.51067C165.695 4.75027 159.384 12.3625 154.452 20.9203C148.297 31.6183 143.541 44.4675 133.47 50.0152C126.605 53.7947 118.038 53.708 109.931 54.4913C96.3767 55.8229 83.6785 59.7479 71.1146 63.8324C59.085 67.749 47.0302 71.8559 36.7295 79.0737C29.439 84.182 24.8481 92.0656 18.3661 98.0972C14.1418 102.031 8.70049 103.804 5.03286 108.538C0.517563 114.368 -2.30519 123.701 2.53183 133.316C7.12266 142.481 16.3379 145.955 22.9346 152.264Z" fill="var(--color_primary)"/>
<g opacity="0.5">
<path opacity="0.5" d="M141.958 30.144C140.805 31.0504 139.605 32.6618 139.901 35.6356C140.486 41.4462 145.519 43.5136 146.549 49.3745C146.814 50.9362 146.75 52.5361 146.361 54.0717C145.72 56.6175 144.534 58.1897 143.58 60.1788C142.37 62.7188 141.919 65.5547 142.282 68.3449C142.689 71.4224 143.822 74.3589 145.589 76.9111C147.091 79.0345 148.714 80.3634 150.297 81.9328C152.294 83.9444 154.106 86.1305 155.713 88.4652C156.526 89.5867 157.218 90.7907 157.778 92.0573C158.466 93.6603 158.939 95.5207 159.398 97.3419L163.488 113.54C164.033 115.697 164.587 117.887 165.371 119.832C166.274 122.07 167.424 123.849 168.552 125.581C170.983 129.313 173.537 133.173 176.175 134.583C178.813 135.993 181.513 134.024 181.566 128.907C181.616 124.039 179.384 118.492 179.112 113.425C178.684 105.444 183.147 102.515 183.105 94.7513C183.063 87.3041 179.054 79.7899 177.37 71.9678C176.164 66.3726 176.206 60.7775 175.269 55.1404C173.92 47.0106 170.585 39.3676 166.876 34.2172C163.166 29.0669 159.124 26.1462 155.213 24.2774C153.556 23.4857 151.872 22.8646 150.395 23.343C148.823 23.8522 148.28 26.3169 147.01 27.5114C145.555 28.899 143.51 28.9158 141.958 30.144Z" fill="var(--color_primary)"/>
<path opacity="0.5" d="M149.195 24.283C149.195 24.283 173.741 91.4082 178.875 134.824" stroke="#535461" stroke-width="2" stroke-miterlimit="10"/>
<path opacity="0.5" d="M139.966 35.9881C139.966 35.9881 155.912 41.7875 161.966 62.8113" stroke="#535461" stroke-width="2" stroke-miterlimit="10"/>
<path opacity="0.5" d="M142.57 70.0347C142.57 70.0347 163.191 66.0453 166.451 78.019" stroke="#535461" stroke-width="2" stroke-miterlimit="10"/>
<path opacity="0.5" d="M166.865 34.0634C166.865 34.0634 161.924 43.9752 162.906 65.9054" stroke="#535461" stroke-width="2" stroke-miterlimit="10"/>
<path opacity="0.5" d="M183.043 94.9108C183.043 94.9108 179.484 101.208 169.335 88.4987" stroke="#535461" stroke-width="2" stroke-miterlimit="10"/>
<path opacity="0.5" d="M163.807 112.65C163.807 112.65 173.956 106.845 172.2 99.7227" stroke="#535461" stroke-width="2" stroke-miterlimit="10"/>
</g>
<path d="M191.117 5.27906C188.247 5.7043 184.794 7.03315 183.376 11.1372C180.592 19.183 189.058 25.2734 187.108 33.6801C186.523 36.1979 185.082 38.2458 183.563 39.7397C180.587 42.666 177.199 43.9361 173.982 45.9223C170.764 47.9086 167.424 51.0251 165.916 55.8118C164.464 60.4166 165.094 65.5054 166.602 69.3073C168.11 73.1092 170.392 75.9432 172.432 79.0709C174.915 82.9213 176.992 87.0194 178.628 91.2991C179.359 93.1819 180.027 95.1682 180.265 97.423C180.528 99.994 180.195 102.761 179.865 105.469L176.922 129.528C176.53 132.731 176.136 135.99 176.362 139.076C176.617 142.638 177.669 145.743 178.707 148.775C180.945 155.316 183.34 162.112 187.556 165.734C191.771 169.357 198.396 168.566 201.96 161.863C205.354 155.481 204.73 146.683 207.623 139.829C212.183 129.027 222.911 128.154 228.073 117.901C233.027 108.065 230.255 95.4815 232.244 84.0506C233.671 75.8593 237.529 68.538 239.518 60.4782C242.371 48.8654 241.009 36.57 237.232 27.3072C233.455 18.0444 227.502 11.4897 221.101 6.41209C218.388 4.26074 215.506 2.31642 212.295 1.95833C208.87 1.57786 206.14 4.45937 202.841 5.18395C199.009 6.03721 195.008 4.70556 191.117 5.27906Z" fill="var(--color_primary)"/>
<path d="M209.254 2.40033C209.254 2.40033 211.953 107.243 192.647 167.869" stroke="#535461" stroke-width="2" stroke-miterlimit="10"/>
<path d="M183.264 11.6323C183.264 11.6323 210.574 29.9453 208.235 61.7091" stroke="#535461" stroke-width="2" stroke-miterlimit="10"/>
<path d="M165.332 58.2373C165.332 58.2373 208.437 66.7755 206.736 84.7276" stroke="#535461" stroke-width="2" stroke-miterlimit="10"/>
<path d="M237.271 27.103C237.271 27.103 220.889 36.8553 207.983 66.395" stroke="#535461" stroke-width="2" stroke-miterlimit="10"/>
<path d="M227.821 118.078C227.821 118.078 216.586 123.992 205.292 100.453" stroke="#535461" stroke-width="2" stroke-miterlimit="10"/>
<path d="M178.13 128.571C178.13 128.571 201.946 127.715 203.309 117.152" stroke="#535461" stroke-width="2" stroke-miterlimit="10"/>
<path opacity="0.1" d="M148.356 170.86C214.433 170.86 268 165.714 268 159.367C268 153.02 214.433 147.875 148.356 147.875C82.2781 147.875 28.7116 153.02 28.7116 159.367C28.7116 165.714 82.2781 170.86 148.356 170.86Z" fill="var(--color_primary)"/>
<path opacity="0.1" d="M70.8628 218.62C106.546 218.62 135.473 211.731 135.473 203.233C135.473 194.735 106.546 187.846 70.8628 187.846C35.1796 187.846 6.25262 194.735 6.25262 203.233C6.25262 211.731 35.1796 218.62 70.8628 218.62Z" fill="var(--color_primary)"/>
<path d="M126.272 147.424C126.924 146.817 127.536 146.101 127.726 145.231C127.917 144.361 127.545 143.315 126.711 142.993C125.779 142.635 124.781 143.273 124.025 143.936C123.27 144.599 122.403 145.334 121.415 145.195C121.924 144.733 122.304 144.148 122.519 143.496C122.735 142.844 122.777 142.147 122.643 141.474C122.6 141.196 122.482 140.935 122.302 140.718C121.784 140.159 120.844 140.402 120.226 140.839C118.268 142.238 117.708 144.904 117.694 147.315C117.496 146.445 117.664 145.539 117.658 144.646C117.652 143.754 117.409 142.766 116.656 142.285C116.188 142.033 115.661 141.91 115.129 141.927C114.242 141.893 113.255 141.983 112.65 142.632C111.898 143.438 112.091 144.789 112.748 145.676C113.406 146.563 114.399 147.119 115.314 147.732C116.048 148.17 116.674 148.767 117.146 149.48C117.202 149.58 117.248 149.685 117.283 149.794H122.836C124.083 149.163 125.239 148.365 126.272 147.424Z" fill="var(--color_primary)"/>
<path d="M33.4171 180.22C33.9299 179.802 34.3035 179.238 34.4886 178.603C34.6285 177.96 34.3543 177.19 33.7389 176.955C33.0507 176.693 32.3149 177.168 31.7582 177.652C31.2014 178.136 30.5608 178.684 29.8306 178.581C30.2059 178.241 30.4867 177.809 30.6455 177.328C30.8044 176.847 30.8359 176.333 30.7371 175.836C30.7055 175.631 30.6185 175.437 30.4853 175.277C30.102 174.868 29.411 175.045 28.9522 175.366C27.4974 176.39 27.0918 178.365 27.0834 180.145C26.9379 179.504 27.061 178.835 27.0554 178.186C27.0498 177.537 26.8708 176.788 26.3169 176.446C25.9734 176.262 25.5876 176.17 25.1978 176.181C24.5432 176.155 23.8158 176.223 23.3682 176.701C22.8087 177.294 22.957 178.293 23.441 178.939C23.9249 179.585 24.6579 180.002 25.3349 180.455C25.8775 180.778 26.3404 181.219 26.6889 181.745C26.7299 181.818 26.7637 181.895 26.7897 181.974H30.8881C31.8064 181.506 32.6571 180.916 33.4171 180.22Z" fill="var(--color_primary)"/>
<path d="M147.279 216.589C147.791 216.171 148.165 215.607 148.35 214.972C148.49 214.328 148.216 213.559 147.6 213.324C146.912 213.061 146.177 213.537 145.62 214.021C145.063 214.505 144.422 215.053 143.692 214.949C144.068 214.609 144.348 214.178 144.507 213.697C144.666 213.216 144.698 212.702 144.599 212.205C144.567 211.999 144.48 211.806 144.347 211.646C143.964 211.237 143.273 211.413 142.814 211.735C141.359 212.759 140.953 214.734 140.945 216.513C140.8 215.873 140.923 215.204 140.917 214.555C140.911 213.906 140.732 213.156 140.178 212.815C139.835 212.63 139.449 212.539 139.059 212.549C138.405 212.524 137.677 212.591 137.23 213.069C136.67 213.663 136.819 214.661 137.303 215.308C137.787 215.954 138.52 216.371 139.197 216.824C139.739 217.146 140.202 217.587 140.551 218.114C140.592 218.186 140.625 218.263 140.651 218.343H144.75C145.668 217.875 146.519 217.285 147.279 216.589Z" fill="var(--color_primary)"/>
<path d="M218.536 157.484C218.536 157.484 217.327 158.139 216.779 154.424C216.424 152.023 215.428 147.021 214.768 143.793L214.684 143.382C214.874 143.323 215.06 143.254 215.243 143.175C215.243 143.175 211.402 128.292 212.281 125.016C213.159 121.74 212.281 115.834 212.281 115.834L209.975 108.073C209.975 108.073 204.268 106.115 202.075 105.556C199.882 104.996 193.735 101.183 193.735 101.183C193.842 101.306 193.942 101.435 194.035 101.569L193.789 101.418C193.341 101.002 192.936 100.541 192.58 100.044C193.806 98.7407 194.6 97.0907 194.854 95.3192C195.675 93.7642 196.062 92.0173 195.976 90.2613C195.89 88.5054 195.333 86.8048 194.365 85.3375C194.738 84.87 195.023 84.3381 195.204 83.768C195.278 83.508 195.31 83.238 195.299 82.9679C195.339 82.5343 195.245 82.0989 195.03 81.7203C194.815 81.3417 194.489 81.038 194.096 80.8501C193.834 80.741 193.553 80.6863 193.269 80.6892C192.986 80.692 192.705 80.7525 192.446 80.8669C191.959 81.0879 191.576 81.502 191.047 81.6111C190.157 81.7957 189.396 81.0823 188.703 80.5536C187.619 79.7445 186.325 79.2638 184.976 79.1688C184.386 79.1021 183.789 79.1808 183.236 79.3982C182.677 79.65 182.271 80.1004 181.807 80.4753C180.223 81.751 178.005 82.1063 176.021 82.8001C175.643 82.9315 175.218 83.133 175.151 83.4911C175.137 83.5593 175.137 83.6298 175.151 83.6981C175.134 83.7859 175.141 83.8766 175.171 83.9611C171.467 84.5821 167.844 87.3937 167.844 87.3937L167.237 87.9532C167.038 87.8461 166.812 87.7994 166.587 87.8188C166.362 87.8381 166.147 87.9228 165.969 88.0623L164.744 89.0219C164.522 89.1944 164.371 89.4423 164.32 89.7186C164.268 89.9948 164.32 90.2804 164.464 90.5214L155.512 98.8246L155.316 99.0065V98.9757C155.316 98.9757 148.403 104.224 148.403 107.928C148.403 110.611 150.462 112.27 151.607 112.983C150.592 113.934 149.824 115.118 149.369 116.433V116.466L149.352 116.514V116.55V116.589V116.626V116.662V116.696V116.729V116.76V116.791V116.819V116.849V116.875V116.911V116.947V116.967V116.989V117.006V117.023V117.14V117.182L149.338 117.266V117.325V117.381L149.313 117.535V117.596L149.296 117.7V117.742L149.279 117.843V117.915L149.254 118.055L149.223 118.229V118.265L149.198 118.41V118.48L149.17 118.64V118.679L149.139 118.858V118.939L149.061 119.39V119.404L149.019 119.65V119.692L148.974 119.944V119.977L148.929 120.235V120.254L148.882 120.534V120.593L148.834 120.858V120.917L148.787 121.18V121.211L148.733 121.507V121.561L148.616 122.224L148.557 122.551V122.601L148.498 122.934V122.959L148.373 123.659V123.717L148.311 124.056V124.104L148.177 124.834V124.865L148.11 125.237V125.267L147.97 126.02V126.07L147.9 126.442V126.47L147.754 127.24V127.282L147.682 127.659V127.687L147.531 128.468V128.499L147.458 128.879V128.91L147.307 129.679V129.713L147.231 130.09V130.113L147.077 130.879V130.902L147.002 131.274V131.296L146.851 132.029V132.06L146.778 132.41V132.443L146.63 133.14V133.165L146.557 133.495V133.529C146.508 133.751 146.46 133.969 146.411 134.183V134.203L146.342 134.513V134.544C146.295 134.751 146.248 134.952 146.202 135.146V135.162L146.135 135.442V135.467C146.088 135.654 146.043 135.835 146 136.01L145.936 136.256V136.284L145.872 136.522C145.592 137.549 145.354 138.234 145.175 138.413C145 138.596 144.862 138.812 144.769 139.048L144.744 139.115L144.716 139.191L144.691 139.266L144.669 139.339L144.646 139.418L144.627 139.49L144.607 139.571L144.59 139.647L144.571 139.731L144.557 139.806C144.545 139.86 144.536 139.916 144.529 139.971V140.041V140.134V140.206V140.299V140.372V140.464V140.537C144.529 140.567 144.529 140.598 144.529 140.629V140.699C144.529 140.814 144.529 140.925 144.529 141.035C144.529 141.057 144.529 141.077 144.529 141.099C144.529 141.121 144.529 141.158 144.529 141.188C144.529 141.219 144.529 141.233 144.529 141.256C144.529 141.278 144.529 141.314 144.529 141.342C144.529 141.37 144.529 141.384 144.529 141.407C144.529 141.429 144.529 141.463 144.529 141.491C144.529 141.519 144.529 141.533 144.529 141.552C144.529 141.572 144.529 141.608 144.529 141.633V141.689C144.529 141.74 144.529 141.789 144.529 141.837V142.016V142.081V142.134V142.193V142.279V142.33V142.377V142.419V142.495V142.713L145.558 143.026C145.558 143.026 146.081 143.306 146.884 143.687C146.77 147.172 146.448 151.892 145.575 154.782C143.617 154.88 138.813 155.084 137.943 154.737C136.847 154.301 129.83 153.207 132.018 158.234C132.938 160.341 134.939 161.93 136.95 163.065C136.701 163.147 136.447 163.212 136.189 163.261C134.401 163.6 133.901 164.204 133.973 164.82C133.848 165.855 135.607 167.016 135.75 167.086C135.968 167.195 143.432 168.398 145.189 167.852C146.946 167.307 154.077 165.995 154.077 165.995C154.077 165.995 154.077 165.916 154.077 165.779C154.077 165.779 153.979 163.631 153.71 161.583C154.519 161.465 155.389 161.356 156.256 161.303C156.367 161.82 156.593 162.304 156.919 162.72C157.245 163.136 157.661 163.472 158.136 163.703C162.856 166.109 164.392 162.828 164.392 162.828C164.392 162.828 170.773 164.056 174.34 163.163C174.712 163.494 175.028 163.754 175.257 163.919C176.416 164.758 179.532 165.318 183.018 165.365C183.95 165.458 184.89 165.432 185.815 165.287C187.367 165.189 188.906 164.951 190.415 164.576C194.611 163.488 195.534 159.585 195.73 157.812C195.895 157.764 196.01 157.591 196.08 157.266C196.162 157.09 196.212 156.9 196.225 156.707C196.317 155.904 196.468 155.109 196.676 154.329L201.843 154.608C204.165 158.805 206.21 162.162 206.21 162.162L209.721 161.725C207.979 160.526 206.436 159.062 205.147 157.386C203.379 154.751 203.379 142.179 203.379 142.179L203.574 134.502C203.574 134.527 203.574 134.553 203.574 134.581V134.211C203.902 136.483 206.473 143.066 206.764 143.163C206.974 143.233 207.181 143.295 207.388 143.354L207.572 143.843C209.038 147.726 212.756 157.658 213.019 159.23C213.349 161.188 227.066 161.963 230.14 160.979C233.215 159.994 218.536 157.484 218.536 157.484ZM169.578 113.976L164.543 121.53C162.738 118.427 160.858 115.56 159.16 113.666C163.653 113.803 168.778 113.968 169.589 113.976H169.578ZM168.815 94.6394C169.009 94.7318 169.226 94.7681 169.441 94.7444C169.655 94.7207 169.859 94.6378 170.029 94.5051L170.46 94.1694C170.676 93.9977 170.824 93.7535 170.875 93.4817C170.927 93.2098 170.878 92.9286 170.739 92.6895L170.994 92.4377C172.771 92.1396 174.525 91.7161 176.242 91.1704C176.307 92.7304 176.746 94.252 177.521 95.6074C177.673 96.4742 177.956 97.3128 178.36 98.0944C177.574 98.0301 176.715 97.9825 175.898 97.9909C175.182 97.9761 174.466 98.021 173.758 98.1252C171.125 98.5616 170.795 103.373 170.795 103.373C170.795 103.373 165.508 105.234 162.327 105.298C161.924 105.3 161.523 105.241 161.138 105.122L160.816 105.102L161.247 103.919C161.247 103.919 161.06 103.978 160.752 104.039C160.851 103.89 160.954 103.738 161.062 103.583C163.074 100.688 166.56 96.9586 168.826 94.6366L168.815 94.6394ZM157.957 153C157.552 153.692 157.187 154.408 156.866 155.143C155.618 155.386 153.92 155.52 153.017 154.751C152.609 154.417 152.097 154.238 151.57 154.245L151.59 154.206C152.211 153.014 152.742 150.342 153.154 147.578C155.165 147.578 157.07 145.9 157.07 145.9L159.602 146.767L159.694 146.943L159.756 147.058L159.857 147.245L159.921 147.363L160.022 147.547L160.086 147.665L160.184 147.844L160.248 147.961L160.346 148.138L160.411 148.255L160.509 148.431L160.573 148.543L160.671 148.717L160.735 148.829L160.833 148.999L160.895 149.108L160.992 149.276L161.054 149.383L161.152 149.55L161.211 149.648L161.311 149.816L161.367 149.911L161.465 150.076L161.516 150.163L161.619 150.334L161.658 150.398C161.837 150.678 162.008 150.958 162.173 151.237L162.198 151.276L162.293 151.43L162.335 151.495L162.422 151.632L162.47 151.705L162.548 151.828L162.598 151.906L162.671 152.021L162.721 152.099L162.791 152.205L162.842 152.281L162.906 152.379L162.956 152.454L163.015 152.544L163.063 152.619L163.116 152.7L163.163 152.773C161.443 153.052 159.695 153.128 157.957 153Z" fill="url(#paint0_linear)"/>
<path d="M228.932 160.36C225.936 161.323 212.56 160.573 212.241 158.648C211.984 157.107 208.361 147.385 206.926 143.586L206.352 142.064L213.307 140.567C213.307 140.567 213.562 141.787 213.914 143.524C214.558 146.697 215.529 151.59 215.873 153.943C216.407 157.579 217.585 156.939 217.585 156.939C217.585 156.939 231.928 159.398 228.932 160.36Z" fill="#FFBDC6"/>
<path d="M191.164 97.2384C191.164 97.2384 190.63 100.447 195.229 103.443C199.828 106.44 195.87 117.247 195.87 117.247L192.468 117.437C190.307 117.558 188.183 116.836 186.543 115.424C184.903 114.012 183.874 112.019 183.672 109.864C183.672 109.864 185.597 106.761 182.067 98.7351L191.164 97.2384Z" fill="#FFBDC6"/>
<path d="M171.262 93.2742C171.262 93.2742 164.638 99.731 161.56 104.185C161.196 104.701 160.864 105.24 160.564 105.796C158.326 110.076 153.092 103.119 154.902 100.713L156.15 99.5492L168.16 88.3588C168.16 88.3588 176.399 81.9384 180.57 86.5404C184.741 91.1424 171.262 93.2742 171.262 93.2742Z" fill="#FFBDC6"/>
<path d="M186.814 101.247C192.132 101.247 196.443 96.9362 196.443 91.618C196.443 86.2999 192.132 81.9888 186.814 81.9888C181.496 81.9888 177.185 86.2999 177.185 91.618C177.185 96.9362 181.496 101.247 186.814 101.247Z" fill="#A66477"/>
<path d="M146.761 154.262C146.761 154.262 139.594 154.69 138.522 154.262C137.451 153.833 130.605 152.765 132.745 157.686C134.885 162.607 143.018 164.641 143.018 164.641L148.893 163.144L146.761 154.262Z" fill="#7679B4"/>
<path opacity="0.05" d="M146.761 154.262C146.761 154.262 139.594 154.69 138.522 154.262C137.451 153.833 130.605 152.765 132.745 157.686C134.885 162.607 143.018 164.641 143.018 164.641L148.893 163.144L146.761 154.262Z" fill="black"/>
<path d="M172.325 133.185L186.716 139.015L194.902 156.402C194.902 156.402 195.008 162.5 189.659 163.891C184.31 165.281 176.821 164.641 174.894 163.25C172.966 161.86 165.052 153.618 165.052 153.618L172.325 133.185Z" fill="#7679B4"/>
<path opacity="0.05" d="M171.355 133.185L183.812 137.851L190.899 151.766C190.899 151.766 190.991 156.648 186.361 157.761C181.731 158.875 175.246 158.36 173.582 157.247C171.917 156.133 165.052 149.539 165.052 149.539L171.355 133.185Z" fill="black"/>
<path d="M158.959 154.261C158.959 154.261 155.213 155.546 153.716 154.261C152.219 152.977 149.542 154.589 149.542 154.589L150.72 161.544C150.72 161.544 156.069 160.366 158.959 160.688V154.261Z" fill="#FFBDC6"/>
<path opacity="0.05" d="M158.959 154.261C158.959 154.261 155.213 155.546 153.716 154.261C152.219 152.977 149.542 154.589 149.542 154.589L150.72 161.544C150.72 161.544 156.069 160.366 158.959 160.688V154.261Z" fill="black"/>
<path d="M161.099 146.772L157.675 145.595C157.675 145.595 153.929 148.913 151.47 146.129C149.01 143.345 153.708 131.791 153.708 131.791L158.743 123.659L162.38 135.106L165.698 140.671L161.099 146.772Z" fill="#565388"/>
<path opacity="0.05" d="M161.099 146.772L157.675 145.595C157.675 145.595 153.929 148.913 151.47 146.129C149.01 143.345 153.708 131.791 153.708 131.791L158.743 123.659L162.38 135.106L165.698 140.671L161.099 146.772Z" fill="black"/>
<path d="M193.733 146.132L201.437 147.2L202.934 154.261L193.411 153.727L193.733 146.132Z" fill="#565388"/>
<path opacity="0.05" d="M193.733 146.132L201.437 147.2L202.934 154.261L193.411 153.727L193.733 146.132Z" fill="black"/>
<path opacity="0.1" d="M182.926 107.399C182.926 107.399 186.134 119.709 196.407 110.823L199.182 146.129C199.182 146.129 195.758 151.587 195.224 156.508C194.689 161.429 185.379 141.314 179.817 141.208C174.256 141.102 168.745 133.344 168.745 133.344L175.008 120.458L182.926 107.399Z" fill="black"/>
<path d="M183.032 107.077C183.032 107.077 186.241 119.387 196.513 110.502L199.294 145.81C199.294 145.81 195.87 151.268 195.336 156.189C194.801 161.11 185.494 140.995 179.929 140.881C174.365 140.766 168.856 133.017 168.856 133.017L175.123 120.131L183.032 107.077Z" fill="#F2F1F2"/>
<path opacity="0.1" d="M181.32 99.1603C181.32 99.1603 176.827 98.4105 174.259 98.8386C171.69 99.2666 171.369 103.975 171.369 103.975C171.369 103.975 164.095 106.543 161.633 105.687C161.633 105.687 149.542 104.831 149.542 108.468C149.542 112.105 153.394 113.817 153.394 113.817C153.394 113.817 170.18 114.376 170.3 114.351C174.152 113.282 170.194 114.351 170.194 114.351L163.239 124.837L169.659 133.716L176.508 128.68C176.508 128.68 177.361 123.983 179.599 121.628C181.205 119.949 183.3 112.373 184.355 108.18C184.58 107.297 184.627 106.378 184.493 105.477C184.36 104.577 184.048 103.711 183.577 102.931L181.32 99.1603Z" fill="black"/>
<path opacity="0.1" d="M161.56 104.182C161.196 104.699 160.864 105.237 160.564 105.793C158.326 110.074 153.092 103.116 154.902 100.71L156.15 99.5464C155.688 105.072 160.184 104.484 161.56 104.182Z" fill="black"/>
<path opacity="0.1" d="M170.194 113.923H170.087C170.087 113.923 174.043 112.854 170.194 113.923Z" fill="black"/>
<path d="M180.998 99.1603C180.998 99.1603 176.505 98.4105 173.937 98.8386C171.369 99.2666 171.047 103.975 171.047 103.975C171.047 103.975 163.773 106.543 161.311 105.687L161.739 104.509C161.739 104.509 155.213 106.543 155.962 99.6946C155.962 99.6946 149.223 104.831 149.223 108.468C149.223 112.105 153.075 113.817 153.075 113.817C153.075 113.817 169.861 114.376 169.981 114.351C173.833 113.282 169.875 114.351 169.875 114.351L162.92 124.837L169.34 133.716L176.189 128.68C176.189 128.68 177.045 123.972 179.291 121.619C180.897 119.941 182.993 112.365 184.047 108.171C184.272 107.289 184.319 106.37 184.185 105.469C184.052 104.568 183.741 103.703 183.27 102.923L180.998 99.1603Z" fill="#565388"/>
<path opacity="0.1" d="M203.04 133.931L203.026 134.519C202.985 134.325 202.99 134.123 203.04 133.931Z" fill="black"/>
<path opacity="0.1" d="M213.92 143.524C211.644 144.225 209.214 144.247 206.926 143.586L206.352 142.064L213.307 140.567C213.307 140.567 213.565 141.787 213.92 143.524Z" fill="black"/>
<path opacity="0.1" d="M193.089 101.835C193.089 101.835 199.082 105.581 201.222 106.115C203.362 106.649 208.926 108.577 208.926 108.577L211.164 116.172C211.164 116.172 212.02 121.949 211.164 125.161C210.308 128.373 202.285 134.469 202.713 133.506L202.5 141.958C202.5 141.958 202.5 154.267 204.212 156.83C205.924 159.392 200.95 154.312 200.95 154.312C200.95 154.312 194.905 145.379 194.155 139.708C193.405 134.038 194.583 112.211 194.583 112.211L193.514 110.714C193.514 110.714 195.764 104.937 193.089 101.835Z" fill="black"/>
<path d="M193.411 101.835C193.411 101.835 199.403 105.581 201.543 106.115C203.684 106.649 209.248 108.577 209.248 108.577L211.486 116.172C211.486 116.172 212.342 121.949 211.486 125.161C210.63 128.373 214.376 142.923 214.376 142.923C214.376 142.923 210.927 144.517 206.137 142.923C205.815 142.817 202.607 134.471 203.035 133.506L202.819 141.958C202.819 141.958 202.819 154.267 204.531 156.83C205.632 158.444 206.966 159.886 208.49 161.11L205.066 161.538C205.066 161.538 195.221 145.382 194.474 139.717C193.727 134.052 194.902 112.219 194.902 112.219L193.833 110.723C193.833 110.723 196.085 104.937 193.411 101.835Z" fill="#565388"/>
<path d="M164.213 153.19C164.213 153.19 157.045 142.811 157.364 137.996C157.364 137.996 156.508 144.629 155.546 145.057C154.583 145.485 144.954 142.489 144.954 142.489C144.954 142.489 144.526 139.387 145.595 138.315C146.663 137.244 149.981 117.451 149.981 117.451C149.981 117.451 151.159 112.102 156.293 111.78C161.426 111.459 172.983 137.566 172.983 137.566C172.983 137.566 174.687 153.19 164.213 153.19Z" fill="#7679B4"/>
<path d="M147.296 139.068C147.296 139.068 147.508 154.046 144.834 156.508C142.159 158.97 152.644 160.254 152.644 160.254C152.644 160.254 150.826 156.617 152.323 153.727C153.819 150.837 154.785 139.068 154.785 139.068H147.296Z" fill="#FFBDC6"/>
<path opacity="0.05" d="M147.83 156.295C147.83 156.295 146.761 153.621 143.871 155.761C143.871 155.761 141.303 161.753 136.81 162.609C132.317 163.466 136.17 166.034 136.382 166.14C136.595 166.246 143.871 167.424 145.583 166.89C147.296 166.355 154.256 165.071 154.256 165.071C154.256 165.071 153.934 158.01 152.857 157.476C151.78 156.942 152.326 160.682 147.83 156.295Z" fill="black"/>
<path d="M147.83 156.508C147.83 156.508 146.761 153.833 143.871 155.974C143.871 155.974 141.303 161.966 136.81 162.822C132.317 163.678 136.17 166.246 136.382 166.353C136.595 166.459 143.871 167.637 145.583 167.102C147.296 166.568 154.256 165.284 154.256 165.284C154.256 165.284 153.934 158.223 152.857 157.689C151.78 157.154 152.326 160.895 147.83 156.508Z" fill="#7679B4"/>
<path d="M167.975 89.2792C168.878 90.6831 169.851 92.0407 170.89 93.3469C170.991 93.4621 171.066 93.5966 171.113 93.7422C171.159 93.8878 171.175 94.0413 171.16 94.1933C171.145 94.3453 171.099 94.4926 171.024 94.6261C170.95 94.7596 170.849 94.8765 170.728 94.9695L170.308 95.2968C170.19 95.3917 170.053 95.4613 169.906 95.5015C169.76 95.5417 169.607 95.5516 169.456 95.5307C169.305 95.5098 169.161 95.4584 169.031 95.3797C168.901 95.301 168.788 95.1967 168.7 95.073C167.763 93.7747 166.59 92.6643 165.242 91.7999C165.086 91.7058 164.955 91.575 164.861 91.4189C164.767 91.2627 164.712 91.086 164.702 90.904C164.692 90.722 164.726 90.5403 164.802 90.3746C164.879 90.209 164.994 90.0644 165.138 89.9535L166.333 89.0135C166.455 88.9151 166.597 88.8436 166.748 88.8035C166.9 88.7634 167.058 88.7556 167.213 88.7807C167.368 88.8057 167.516 88.8631 167.647 88.949C167.779 89.0349 167.89 89.1474 167.975 89.2792Z" fill="#565388"/>
<path opacity="0.1" d="M192.39 101.04C191.016 99.082 191.271 97.5545 191.271 97.5545L182.176 99.0512C182.808 100.463 183.328 101.922 183.731 103.415C185.253 103.861 186.868 103.874 188.397 103.455C189.926 103.036 191.308 102.2 192.39 101.04Z" fill="black"/>
<path d="M186.028 103.441C190.756 103.441 194.589 99.6079 194.589 94.88C194.589 90.1521 190.756 86.3194 186.028 86.3194C181.3 86.3194 177.467 90.1521 177.467 94.88C177.467 99.6079 181.3 103.441 186.028 103.441Z" fill="#FFBDC6"/>
<path opacity="0.1" d="M182.262 90.4179C183.071 90.2836 183.79 89.808 184.61 89.7688C185.662 89.7157 186.582 90.3787 187.312 91.0669C188.042 91.7551 188.75 92.5328 189.752 92.8294C190.393 92.9798 191.054 93.0242 191.71 92.9609C192.079 92.983 192.446 92.8923 192.762 92.7007C192.925 92.5574 193.05 92.3757 193.125 92.1719C193.404 91.5287 193.545 90.8344 193.54 90.1335C193.534 89.4325 193.383 88.7404 193.095 88.1015C193.013 87.9695 192.978 87.8136 192.997 87.6594C193.029 87.5684 193.081 87.4854 193.148 87.4161C193.825 86.602 194.566 85.7851 194.846 84.7975C195.126 83.81 194.784 82.593 193.763 82.1538C193.508 82.0472 193.234 81.9937 192.957 81.9966C192.681 81.9995 192.408 82.0587 192.155 82.1706C191.679 82.3888 191.315 82.7916 190.787 82.9008C189.919 83.0798 189.178 82.3832 188.501 81.8656C187.444 81.0739 186.182 80.6038 184.864 80.5116C184.289 80.4457 183.707 80.5226 183.169 80.7354C182.626 80.9816 182.229 81.4236 181.77 81.7873C180.226 83.035 178.063 83.3847 176.13 84.0645C175.761 84.1932 175.35 84.3919 175.291 84.7416C175.213 85.1416 175.638 85.4745 176.049 85.6368C176.46 85.799 176.939 85.8998 177.218 86.2187C177.577 86.6327 177.451 87.2202 177.518 87.7406C177.646 88.7729 178.556 89.3408 179.557 89.6429C180.346 89.8779 181.437 90.5549 182.262 90.4179Z" fill="black"/>
<path d="M182.262 90.2024C183.071 90.0682 183.79 89.5926 184.61 89.5534C185.662 89.5003 186.582 90.1633 187.312 90.8515C188.042 91.5397 188.75 92.3174 189.752 92.614C190.393 92.7644 191.054 92.8088 191.71 92.7454C192.074 92.7639 192.436 92.6723 192.748 92.4825C192.911 92.3392 193.036 92.1575 193.112 91.9537C193.39 91.3105 193.531 90.6162 193.526 89.9152C193.52 89.2143 193.369 88.5222 193.081 87.8833C192.999 87.7513 192.964 87.5954 192.983 87.4412C193.015 87.3502 193.067 87.2672 193.134 87.1978C193.811 86.3837 194.552 85.5669 194.832 84.5793C195.112 83.5918 194.77 82.3748 193.749 81.9356C193.494 81.829 193.22 81.7755 192.943 81.7784C192.667 81.7813 192.394 81.8405 192.141 81.9524C191.665 82.1706 191.301 82.5734 190.773 82.6825C189.905 82.8616 189.164 82.165 188.487 81.6474C187.43 80.8557 186.168 80.3856 184.85 80.2934C184.275 80.2275 183.693 80.3044 183.155 80.5172C182.612 80.7634 182.215 81.2054 181.756 81.5691C180.212 82.8168 178.049 83.1665 176.116 83.8463C175.747 83.975 175.336 84.1737 175.277 84.5234C175.199 84.9234 175.624 85.2563 176.035 85.4186C176.446 85.5808 176.925 85.6816 177.204 86.0005C177.563 86.4145 177.437 87.002 177.504 87.5224C177.632 88.5547 178.542 89.1226 179.543 89.4247C180.346 89.6653 181.437 90.3423 182.262 90.2024Z" fill="#A66477"/>
<path opacity="0.05" d="M175.358 131.369C175.358 131.369 181.471 132.412 182.998 135.705C184.526 138.998 193.705 147.933 193.705 147.933" fill="black"/>
<g opacity="0.05">
<path opacity="0.05" d="M155.75 144.31C154.787 144.738 145.158 141.742 145.158 141.742C145.041 140.813 145.052 139.871 145.192 138.945C144.632 140.276 144.946 142.495 144.946 142.495C144.946 142.495 154.575 145.491 155.537 145.063C155.856 144.92 156.164 144.098 156.432 143.06C156.217 143.723 155.985 144.204 155.75 144.31Z" fill="black"/>
<path opacity="0.05" d="M150.171 116.791C150.093 117.008 150.027 117.229 149.973 117.454C149.973 117.454 147.651 131.318 146.266 136.477C147.547 132.286 149.964 118.022 150.171 116.791Z" fill="black"/>
<path opacity="0.05" d="M164.414 152.443C164.414 152.443 157.247 142.064 157.568 137.244C157.568 137.244 157.49 137.842 157.356 138.693C157.68 143.748 164.213 153.19 164.213 153.19C169.198 153.19 171.425 149.659 172.39 145.953C171.313 149.371 169.064 152.443 164.414 152.443Z" fill="black"/>
</g>
<path d="M145.947 142.8C145.947 142.8 152.485 146.397 154.841 144.685C157.196 142.973 155.697 140.299 155.697 140.299L153.878 137.303H147.779L145.748 140.833L145.947 142.8Z" fill="#7679B4"/>
<path d="M190.51 156.936C190.51 156.936 190.938 148.375 180.024 148.484C169.111 148.594 179.596 148.484 179.596 148.484C179.596 148.484 175.316 147.2 169.967 150.197C164.618 153.193 158.519 152.549 158.519 152.549C158.519 152.549 153.598 160.682 158.198 163.035C162.797 165.387 164.296 162.179 164.296 162.179C164.296 162.179 173.713 163.997 175.85 161.538C175.85 161.538 180.559 166.674 187.726 163.891C187.74 163.891 193.089 161.538 190.51 156.936Z" fill="#7679B4"/>
<path d="M24.0788 92.1468C24.0788 92.1468 34.1025 102.171 28.443 117.045C22.7835 131.92 38.145 156.656 38.145 156.656C38.145 156.656 37.98 156.631 37.6751 156.578C17.0876 152.941 6.85688 129.397 18.3046 111.903C22.5625 105.402 26.0539 97.7727 24.0788 92.1468Z" fill="var(--color_primary)"/>
<path d="M24.0788 92.1468C24.0788 92.1468 29.7383 104.434 24.0788 114.458C18.4193 124.481 23.108 152.614 38.145 156.656" stroke="#535461" stroke-width="2" stroke-miterlimit="10"/>
<path d="M6.22461 132.692C6.22461 132.692 17.6639 130.871 18.7046 141.121C19.7453 151.372 40.6992 152.793 40.6992 152.793L40.3076 153.053C23.0073 164.408 6.45681 160.287 8.97463 145.22C9.88944 139.602 9.81391 133.971 6.22461 132.692Z" fill="var(--color_primary)"/>
<path opacity="0.2" d="M6.22461 132.692C6.22461 132.692 17.6639 130.871 18.7046 141.121C19.7453 151.372 40.6992 152.793 40.6992 152.793L40.3076 153.053C23.0073 164.408 6.45681 160.287 8.97463 145.22C9.88944 139.602 9.81391 133.971 6.22461 132.692Z" fill="#F5F5F5"/>
<path d="M6.22461 132.692C6.22461 132.692 15.1041 134.65 14.374 142.713C13.6438 150.776 27.559 160.464 40.6992 152.784" stroke="#535461" stroke-width="2" stroke-miterlimit="10"/>
<path d="M29.3494 107.615C29.2375 109.268 30.1104 109.853 30.1104 109.853C31.5372 110.734 32.7737 110.692 33.7976 110.205L46.0063 119.541C47.4526 120.559 48.6052 120.85 49.5648 120.94C48.925 125.241 48.5932 129.583 48.5716 133.931C48.5549 137.23 48.8094 139.999 49.4725 141.205C51.4308 144.767 51.7833 157.448 51.7833 157.448L56.1447 159.496C56.3433 161.421 56.3965 163.281 56.1167 164.571C55.504 167.396 60.2515 180.237 63.0743 187.474C63.0072 189.237 62.9904 190.482 63.0519 190.79C63.2841 191.928 62.2126 197.971 61.7874 200.36C60.7607 201.499 60.4698 203.314 60.7411 204.47C60.9981 205.308 61.1162 206.183 61.0908 207.06C60.9864 208.319 61.0108 209.586 61.1635 210.84C61.2512 211.853 61.2061 212.874 61.0293 213.875C61.0293 213.875 62.1847 216.441 63.0519 213.875C63.9192 211.31 66.23 211.024 67.3854 210.457C68.1351 210.087 68.3981 208.518 68.5044 207.46C68.5142 207.257 68.467 207.056 68.3681 206.878C68.2692 206.701 68.1226 206.555 67.9449 206.456C67.5896 206.232 67.2371 205.494 67.3854 203.331C67.4152 202.95 67.4086 202.567 67.3658 202.187H67.3854L67.9757 197.901C67.9757 197.901 68.0316 196.399 68.3449 194.133C69.0695 193.783 69.7857 193.59 70.2865 193.344C71.0362 192.974 71.2992 191.405 71.4055 190.348C71.4153 190.145 71.3681 189.943 71.2692 189.765C71.1703 189.588 71.0237 189.442 70.846 189.343C70.4907 189.119 70.1382 188.381 70.2865 186.218C70.3005 186.006 70.306 185.807 70.3032 185.617C70.5578 184.864 70.8404 184.112 71.1425 183.379C74.0324 176.539 73.1652 167.712 73.1652 167.712V162.036C73.5289 162.014 73.7443 161.994 73.7443 161.994C73.4645 160.855 79.2359 134.351 79.2359 134.351C79.2499 133.848 79.2527 133.369 79.2527 132.905C79.3143 126.286 77.8791 123.368 77.0146 122.207C77.0846 122.207 77.1545 122.226 77.2245 122.229C77.4732 122.244 77.7227 122.244 77.9714 122.229L80.1144 134.06L81.8489 145.175C86.7614 142.042 83.5834 133.492 83.5834 133.492L82.6322 120.847C83.2578 120.54 83.8642 120.196 84.4478 119.815C84.4478 119.815 84.3947 119.647 84.3023 119.339L84.4478 119.244C84.4478 119.244 81.1914 108.893 81.1215 100.623C81.0982 98.8253 81.3434 97.0338 81.8489 95.3081C82.4697 93.4884 82.778 91.5767 82.7609 89.6541C82.8504 85.0661 80.6935 82.7693 80.6935 82.7693L74.7738 80.5788L74.6395 80.4976C75.0983 79.166 75.5403 77.7616 75.9795 76.3013C76.7539 73.7309 77.1313 71.0573 77.0986 68.3729C77.138 64.891 76.4451 61.4397 75.0647 58.2429C72.5189 52.3931 68.2107 48.5464 63.3149 48.5464C55.4817 48.5464 49.1535 58.3939 49.1535 70.541C49.1535 70.6362 49.1535 70.7313 49.1535 70.8208C49.1535 70.9103 49.1535 71.011 49.1535 71.1006C49.1357 74.1211 49.5387 77.1295 50.3509 80.0388L48.8822 80.4921L43.1024 87.0468C43.1024 87.0468 31.8309 100.724 30.0992 104.431C29.453 105.835 29.2935 106.87 29.3494 107.615ZM37.2107 105.838C37.2918 105.654 37.3337 105.542 37.3337 105.542L48.8934 94.2701C52.0043 96.3907 53.0394 101.001 53.0897 105.363C53.0788 107.66 52.7885 109.947 52.2253 112.175C52.2253 112.175 50.9244 111.335 50.9244 112.175C50.9244 113.014 49.1899 116.22 48.0345 116.508C47.0917 116.76 39.9243 108.868 37.2023 105.838H37.2107Z" fill="url(#paint1_linear)"/>
<path d="M67.0553 181.359C67.0553 181.359 70.1326 181.359 69.8529 185.276C69.7018 187.396 70.0431 188.123 70.3872 188.353C70.5592 188.452 70.7004 188.596 70.7952 188.771C70.8901 188.945 70.9347 189.142 70.9243 189.34C70.8348 190.378 70.5802 191.917 69.8529 192.281C68.7338 192.84 66.4958 193.12 65.6565 195.638C64.8172 198.156 63.6982 195.638 63.6982 195.638C63.8698 194.654 63.914 193.653 63.8297 192.658C63.681 191.427 63.6567 190.185 63.7569 188.949C63.7816 188.088 63.6672 187.23 63.4184 186.406C62.9988 184.576 63.9779 181.079 67.0553 181.359Z" fill="#E14B5A"/>
<path opacity="0.05" d="M67.0553 181.359C67.0553 181.359 70.1326 181.359 69.8529 185.276C69.7018 187.396 70.0431 188.123 70.3872 188.353C70.5592 188.452 70.7004 188.596 70.7952 188.771C70.8901 188.945 70.9347 189.142 70.9243 189.34C70.8348 190.378 70.5802 191.917 69.8529 192.281C68.7338 192.84 66.4958 193.12 65.6565 195.638C64.8172 198.156 63.6982 195.638 63.6982 195.638C63.8698 194.654 63.914 193.653 63.8297 192.658C63.681 191.427 63.6567 190.185 63.7569 188.949C63.7816 188.088 63.6672 187.23 63.4184 186.406C62.9988 184.576 63.9779 181.079 67.0553 181.359Z" fill="black"/>
<path d="M36.8414 105.544C36.8414 105.544 47.1924 117.294 48.3114 117.014C49.4305 116.735 51.109 113.657 51.109 112.818C51.109 111.979 52.3679 112.818 52.3679 112.818C52.3679 112.818 51.9483 121.211 50.8293 121.211C49.7102 121.211 48.3114 121.211 46.3531 119.812L32.645 109.181L36.8414 105.544Z" fill="#FFB296"/>
<path d="M81.6027 118.413L82.7217 133.52C82.7217 133.52 85.7991 141.913 81.0432 144.99L79.3646 134.08L76.567 118.413H81.6027Z" fill="#FFB296"/>
<path d="M54.7459 150.865C54.7459 150.865 56.9839 160.097 56.1447 164.014C55.3054 167.931 64.8172 191.43 64.8172 191.43L68.1743 188.073L65.9362 162.056L63.1386 140.234L54.7459 150.865Z" fill="#FFB296"/>
<path opacity="0.05" d="M54.7459 150.865C54.7459 150.865 56.9839 160.097 56.1447 164.014C55.3054 167.931 64.8172 191.43 64.8172 191.43L68.1743 188.073L65.9362 162.056L63.1386 140.234L54.7459 150.865Z" fill="black"/>
<path d="M72.6504 158.419V167.091C72.6504 167.091 73.4897 175.764 70.6921 182.478C67.8945 189.192 67.6148 196.746 67.6148 196.746L67.0552 200.942L61.4601 200.103C61.4601 200.103 63.1386 191.15 62.8589 189.752C62.5791 188.353 63.9779 167.091 63.9779 167.091C63.9779 167.091 62.8589 159.538 63.4184 156.46C63.9779 153.383 66.216 149.746 66.216 149.746L72.6504 158.419Z" fill="#FFB296"/>
<path d="M64.2577 198.144C64.2577 198.144 67.335 198.144 67.0552 202.061C66.9042 204.182 67.2455 204.909 67.5896 205.138C67.7616 205.237 67.9028 205.382 67.9976 205.556C68.0924 205.731 68.1371 205.928 68.1267 206.126C68.0372 207.164 67.7826 208.702 67.0552 209.066C65.9362 209.626 63.6981 209.905 62.8589 212.423C62.0196 214.941 60.9006 212.423 60.9006 212.423C61.0722 211.44 61.1164 210.438 61.0321 209.444C60.8834 208.213 60.8591 206.97 60.9593 205.734C60.984 204.874 60.8696 204.015 60.6208 203.191C60.2012 201.362 61.1803 197.865 64.2577 198.144Z" fill="#E14B5A"/>
<path d="M62.8617 74.2115C67.4969 74.2115 71.2544 70.4539 71.2544 65.8187C71.2544 61.1835 67.4969 57.426 62.8617 57.426C58.2265 57.426 54.4689 61.1835 54.4689 65.8187C54.4689 70.4539 58.2265 74.2115 62.8617 74.2115Z" fill="#FFB296"/>
<path d="M58.6625 67.2175C58.6625 67.2175 61.1803 78.9674 51.6685 81.7649C42.1567 84.5625 62.2993 87.9196 62.2993 87.9196L76.567 82.884C76.567 82.884 60.6208 75.0508 64.5374 67.2175H58.6625Z" fill="#FFB296"/>
<path opacity="0.1" d="M62.8589 82.884L74.1947 82.1315L79.9241 84.2828C79.9241 84.2828 83.561 88.1994 81.0432 96.0326C78.5254 103.866 83.561 120.092 83.561 120.092C83.561 120.092 79.7843 122.688 76.567 122.461C76.284 122.442 76.0032 122.398 75.7278 122.33C75.7278 122.33 78.8051 124.288 78.5254 134.36C78.5254 134.36 72.9302 160.377 73.2099 161.496C73.2099 161.496 67.0553 162.056 64.8172 160.657C64.8172 160.657 63.1386 145.83 61.4601 145.83C61.4601 145.83 57.5435 157.859 57.8232 159.818L51.9483 157.02C51.9483 157.02 51.6042 144.571 49.7103 141.074C47.6288 137.227 49.7103 117.294 51.3888 115.616C53.0673 113.937 55.3054 99.6695 49.1507 95.4731L37.9604 106.384C37.9604 106.384 35.4426 113.098 30.9665 110.3C30.9665 110.3 29.2879 109.181 30.9665 105.544C32.645 101.908 43.5556 88.4792 43.5556 88.4792L49.1507 82.0447L53.6269 80.6459C53.6269 80.6459 59.7815 85.4018 62.8589 82.884Z" fill="black"/>
<path d="M62.8589 82.3245L74.1947 81.5719L79.9241 83.7233C79.9241 83.7233 83.561 87.6399 81.0432 95.4731C78.5254 103.306 83.561 119.532 83.561 119.532C83.561 119.532 79.7843 122.128 76.567 121.902C76.284 121.883 76.0032 121.839 75.7278 121.77C75.7278 121.77 78.8051 123.729 78.5254 133.8C78.5254 133.8 72.9302 159.818 73.2099 160.937C73.2099 160.937 67.0553 161.496 64.8172 160.097C64.8172 160.097 63.1386 145.27 61.4601 145.27C61.4601 145.27 57.5435 157.3 57.8232 159.258L51.9483 156.46C51.9483 156.46 51.6042 144.011 49.7103 140.514C47.6288 136.668 49.7103 116.735 51.3888 115.056C53.0673 113.378 55.3054 99.11 49.1507 94.9136L37.9604 105.824C37.9604 105.824 35.4426 112.538 30.9665 109.741C30.9665 109.741 29.2879 108.622 30.9665 104.985C32.645 101.348 43.5556 87.9197 43.5556 87.9197L49.1507 81.4852L53.6269 80.0864C53.6269 80.0864 59.7815 84.8423 62.8589 82.3245Z" fill="#E14B5A"/>
<path opacity="0.1" d="M74.4688 92.5356C74.4688 92.5356 73.6296 102.887 72.7903 105.405C71.951 107.922 74.4688 120.791 74.4688 120.791" fill="black"/>
<path opacity="0.1" d="M74.4688 60.1984C76.7582 65.6453 77.0739 71.7207 75.3613 77.3756C72.5385 86.9293 69.5675 93.8813 63.0995 93.8813C55.5292 93.8813 49.3913 84.2128 49.3913 72.2896C49.3913 60.3663 55.5292 50.6978 63.0995 50.6978C67.833 50.681 72.0042 54.455 74.4688 60.1984Z" fill="black"/>
<path d="M74.4688 59.6389C76.7582 65.0858 77.0739 71.1612 75.3613 76.816C72.5385 86.3698 69.5675 93.3218 63.0995 93.3218C55.5292 93.3218 49.3913 83.6533 49.3913 71.73C49.3913 59.8067 55.5292 50.1383 63.0995 50.1383C67.833 50.1215 72.0042 53.8955 74.4688 59.6389Z" fill="#632652"/>
<path d="M100.428 25.2706C99.2134 23.8683 97.4918 23.0057 95.6417 22.8728C93.7915 22.7398 91.9643 23.3472 90.5619 24.5614C89.1596 25.7756 88.2971 27.4972 88.1641 29.3474C88.0311 31.1975 88.6385 33.0248 89.8528 34.4271L99.0288 44.9991L109.604 35.8427C111.006 34.6258 111.867 32.9019 111.998 31.0502C112.129 29.1984 111.518 27.3705 110.302 25.9686C109.085 24.5666 107.361 23.7055 105.509 23.5746C103.657 23.4437 101.83 24.0538 100.428 25.2706Z" fill="var(--color_primary)"/>
<path opacity="0.2" d="M91.6908 25.9588C93.0927 24.7478 94.9179 24.1424 96.7657 24.2756C98.6135 24.4089 100.333 25.2698 101.547 26.6694C102.868 25.526 104.568 24.9184 106.315 24.966C108.061 25.0136 109.726 25.7131 110.983 26.9268C110.455 26.0574 109.743 25.3137 108.898 24.7475C108.053 24.1814 107.095 23.8064 106.09 23.6487C105.085 23.491 104.057 23.5545 103.08 23.8346C102.102 24.1147 101.197 24.6048 100.428 25.2706C99.2134 23.8683 97.4918 23.0058 95.6417 22.8728C93.7915 22.7398 91.9643 23.3472 90.5619 24.5614C89.1596 25.7756 88.2971 27.4972 88.1641 29.3474C88.0311 31.1975 88.6385 33.0248 89.8528 34.4271L90.3843 35.0398C89.4711 33.6228 89.1005 31.9237 89.3405 30.2551C89.5806 28.5866 90.4152 27.0609 91.6908 25.9588Z" fill="white"/>
<g opacity="0.5">
<path opacity="0.5" d="M34.5362 40.3468C33.8537 39.6279 32.9206 39.1996 31.9306 39.1508C30.9406 39.1019 29.9699 39.4362 29.2199 40.0843C28.4699 40.7323 27.9984 41.6444 27.9032 42.631C27.8081 43.6176 28.0966 44.6029 28.7088 45.3824L33.7444 51.2098L39.5718 46.1741C39.9819 45.852 40.3224 45.4501 40.5726 44.9926C40.8229 44.5351 40.9777 44.0316 41.0278 43.5126C41.0779 42.9936 41.0221 42.4698 40.8639 41.9729C40.7057 41.476 40.4484 41.0164 40.1074 40.6218C39.7665 40.2273 39.349 39.906 38.8803 39.6775C38.4117 39.4489 37.9015 39.3178 37.3807 39.2921C36.8598 39.2663 36.3392 39.3465 35.8503 39.5278C35.3614 39.7091 34.9143 39.9877 34.5362 40.3468Z" fill="var(--color_primary)"/>
<path opacity="0.2" d="M29.7159 40.7272C30.0987 40.3958 30.5431 40.143 31.0235 39.9833C31.504 39.8236 32.0113 39.7601 32.5163 39.7965C33.0213 39.8329 33.5143 39.9684 33.9669 40.1953C34.4196 40.4222 34.8231 40.736 35.1544 41.1189C35.8825 40.4889 36.82 40.1542 37.7825 40.1807C38.7449 40.2071 39.6626 40.5926 40.3551 41.2616C40.0642 40.7824 39.6723 40.3724 39.2066 40.0603C38.7409 39.7483 38.2127 39.5416 37.6589 39.4548C37.105 39.3679 36.5389 39.403 36.0001 39.5576C35.4612 39.7121 34.9626 39.9824 34.539 40.3496C33.8565 39.6308 32.9234 39.2024 31.9334 39.1536C30.9434 39.1047 29.9727 39.439 29.2227 40.0871C28.4727 40.7351 28.0012 41.6472 27.906 42.6338C27.8109 43.6204 28.0994 44.6057 28.7116 45.3852L28.9914 45.7237C28.491 44.943 28.2889 44.0081 28.4219 43.0904C28.555 42.1727 29.0144 41.3337 29.7159 40.7272Z" fill="white"/>
</g>
<g opacity="0.5">
<path opacity="0.5" d="M135.809 91.2628C135.126 90.544 134.193 90.1156 133.203 90.0668C132.213 90.0179 131.242 90.3522 130.492 91.0003C129.742 91.6483 129.271 92.5604 129.176 93.547C129.081 94.5336 129.369 95.5189 129.981 96.2984L135.017 102.126L140.844 97.0901C141.254 96.768 141.595 96.3661 141.845 95.9086C142.095 95.4511 142.25 94.9476 142.3 94.4286C142.35 93.9096 142.295 93.3858 142.136 92.8889C141.978 92.392 141.721 91.9324 141.38 91.5379C141.039 91.1433 140.622 90.822 140.153 90.5935C139.684 90.3649 139.174 90.2338 138.653 90.2081C138.132 90.1823 137.612 90.2626 137.123 90.4438C136.634 90.6251 136.187 90.9037 135.809 91.2628Z" fill="var(--color_primary)"/>
<path opacity="0.2" d="M130.988 91.6432C131.371 91.3118 131.816 91.059 132.296 90.8993C132.777 90.7396 133.284 90.6761 133.789 90.7125C134.294 90.7489 134.787 90.8844 135.239 91.1113C135.692 91.3382 136.096 91.652 136.427 92.0349C137.155 91.4049 138.092 91.0702 139.055 91.0966C140.017 91.123 140.935 91.5086 141.628 92.1776C141.337 91.6984 140.945 91.2884 140.479 90.9763C140.013 90.6643 139.485 90.4576 138.931 90.3708C138.378 90.2839 137.811 90.319 137.273 90.4735C136.734 90.6281 136.235 90.8984 135.811 91.2655C135.489 90.8555 135.087 90.515 134.63 90.2647C134.172 90.0145 133.669 89.8596 133.15 89.8096C132.631 89.7595 132.107 89.8152 131.61 89.9734C131.113 90.1316 130.654 90.389 130.259 90.7299C129.865 91.0709 129.543 91.4883 129.315 91.957C129.086 92.4257 128.955 92.9359 128.929 93.4567C128.904 93.9775 128.984 94.4981 129.165 94.9871C129.346 95.476 129.625 95.9231 129.984 96.3012L130.264 96.6397C129.763 95.859 129.561 94.9241 129.694 94.0064C129.827 93.0887 130.287 92.2497 130.988 91.6432Z" fill="white"/>
</g>
</g>
<defs>
<linearGradient id="paint0_linear" x1="180.839" y1="168.009" x2="180.839" y2="79.1576" gradientUnits="userSpaceOnUse">
<stop stop-color="#808080" stop-opacity="0.25"/>
<stop offset="0.54" stop-color="#808080" stop-opacity="0.12"/>
<stop offset="1" stop-color="#808080" stop-opacity="0.1"/>
</linearGradient>
<linearGradient id="paint1_linear" x1="-34757.8" y1="84688" x2="-45669.1" y2="84688" gradientUnits="userSpaceOnUse">
<stop stop-color="#808080" stop-opacity="0.25"/>
<stop offset="0.54" stop-color="#808080" stop-opacity="0.12"/>
<stop offset="1" stop-color="#808080" stop-opacity="0.1"/>
</linearGradient>
<clipPath id="clip0">
<rect width="268" height="230.848" fill="white"/>
</clipPath>
</defs>
</svg>
