<svg width="268" height="142" viewBox="0 0 268 142" fill="none" xmlns="http://www.w3.org/2000/svg">
<g clip-path="url(#clip0_1025_320)">
<path d="M220.444 140.708H49.7313C46.292 140.704 42.9947 139.336 40.5627 136.904C38.1308 134.472 36.7628 131.175 36.7589 127.736V95.9719C36.7628 92.5326 38.1308 89.2354 40.5627 86.8034C42.9947 84.3715 46.292 83.0035 49.7313 82.9996L220.444 51.5812C223.883 51.5851 227.18 52.953 229.612 55.385C232.044 57.8169 233.412 61.1142 233.416 64.5535V127.736C233.412 131.175 232.044 134.472 229.612 136.904C227.18 139.336 223.883 140.704 220.444 140.708V140.708Z" fill="#3F3D56"/>
<path d="M52.7694 88.9059H52.2092V139.262H52.7694V88.9059Z" fill="#2F2E41"/>
<path d="M40.1632 90.7957H39.603V112.368H40.1632V90.7957Z" fill="#2F2E41"/>
<path d="M47.7206 82.9997H47.1603V133.355H47.7206V82.9997Z" fill="#2F2E41"/>
<path d="M196.472 82.5794H89.1894C88.472 82.5786 87.7842 82.2933 87.2769 81.786C86.7696 81.2787 86.4843 80.5909 86.4835 79.8735V16.8407C86.4843 16.1233 86.7696 15.4355 87.2769 14.9282C87.7842 14.4209 88.472 14.1356 89.1894 14.1348H196.472C197.19 14.1356 197.878 14.4209 198.385 14.9282C198.892 15.4355 199.178 16.1233 199.178 16.8407V79.8735C199.178 80.5909 198.892 81.2787 198.385 81.786C197.878 82.2932 197.19 82.5786 196.472 82.5794Z" fill="#E6E7E8"/>
<path d="M183.271 82.5794H88.8646C88.2333 82.5787 87.6281 82.3276 87.1817 81.8812C86.7353 81.4348 86.4842 80.8296 86.4835 80.1983V24.7308C86.4842 24.0995 86.7353 23.4943 87.1817 23.0479C87.6281 22.6015 88.2333 22.3504 88.8646 22.3497H183.271C183.903 22.3504 184.508 22.6015 184.954 23.0479C185.401 23.4943 185.652 24.0995 185.652 24.7308V80.1983C185.652 80.8296 185.401 81.4348 184.954 81.8812C184.508 82.3276 183.903 82.5787 183.271 82.5794Z" fill="#2F2E41"/>
<path d="M209.744 105.411H61.271C60.6397 105.41 60.0345 105.159 59.5881 104.713C59.1417 104.266 58.8906 103.661 58.8898 103.03V81.4589C58.8906 80.8276 59.1417 80.2224 59.5881 79.776C60.0345 79.3296 60.6397 79.0785 61.271 79.0778H209.744C210.376 79.0785 210.981 79.3296 211.427 79.776C211.874 80.2224 212.125 80.8276 212.126 81.4589V103.03C212.125 103.661 211.874 104.266 211.427 104.713C210.981 105.159 210.376 105.41 209.744 105.411Z" fill="#3F3D56"/>
<path d="M139.079 85.1007H85.8531C84.6154 85.1007 83.612 86.1041 83.612 87.3418V97.9871C83.612 99.2248 84.6154 100.228 85.8531 100.228H139.079C140.317 100.228 141.321 99.2248 141.321 97.9871V87.3418C141.321 86.1041 140.317 85.1007 139.079 85.1007Z" fill="#B07EF9"/>
<path d="M168.634 88.3223C170.026 88.3223 171.155 87.1935 171.155 85.801C171.155 84.4086 170.026 83.2798 168.634 83.2798C167.242 83.2798 166.113 84.4086 166.113 85.801C166.113 87.1935 167.242 88.3223 168.634 88.3223Z" fill="#2F2E41"/>
<path d="M176.758 88.3223C178.151 88.3223 179.279 87.1935 179.279 85.801C179.279 84.4086 178.151 83.2798 176.758 83.2798C175.366 83.2798 174.237 84.4086 174.237 85.801C174.237 87.1935 175.366 88.3223 176.758 88.3223Z" fill="#2F2E41"/>
<path d="M184.882 88.3223C186.275 88.3223 187.403 87.1935 187.403 85.801C187.403 84.4086 186.275 83.2798 184.882 83.2798C183.49 83.2798 182.361 84.4086 182.361 85.801C182.361 87.1935 183.49 88.3223 184.882 88.3223Z" fill="#2F2E41"/>
<path d="M168.634 94.7655C170.026 94.7655 171.155 93.6367 171.155 92.2442C171.155 90.8518 170.026 89.723 168.634 89.723C167.242 89.723 166.113 90.8518 166.113 92.2442C166.113 93.6367 167.242 94.7655 168.634 94.7655Z" fill="#2F2E41"/>
<path d="M176.758 94.7655C178.151 94.7655 179.279 93.6367 179.279 92.2442C179.279 90.8518 178.151 89.723 176.758 89.723C175.366 89.723 174.237 90.8518 174.237 92.2442C174.237 93.6367 175.366 94.7655 176.758 94.7655Z" fill="#2F2E41"/>
<path d="M184.882 94.7655C186.275 94.7655 187.403 93.6367 187.403 92.2442C187.403 90.8518 186.275 89.723 184.882 89.723C183.49 89.723 182.361 90.8518 182.361 92.2442C182.361 93.6367 183.49 94.7655 184.882 94.7655Z" fill="#2F2E41"/>
<path d="M168.634 101.209C170.026 101.209 171.155 100.08 171.155 98.6874C171.155 97.2949 170.026 96.1661 168.634 96.1661C167.242 96.1661 166.113 97.2949 166.113 98.6874C166.113 100.08 167.242 101.209 168.634 101.209Z" fill="#2F2E41"/>
<path d="M149.82 91.4271C151.213 91.4271 152.341 90.2983 152.341 88.9059C152.341 87.5134 151.213 86.3846 149.82 86.3846C148.428 86.3846 147.299 87.5134 147.299 88.9059C147.299 90.2983 148.428 91.4271 149.82 91.4271Z" fill="#2F2E41"/>
<path d="M149.82 97.8703C151.213 97.8703 152.341 96.7415 152.341 95.3491C152.341 93.9566 151.213 92.8278 149.82 92.8278C148.428 92.8278 147.299 93.9566 147.299 95.3491C147.299 96.7415 148.428 97.8703 149.82 97.8703Z" fill="#2F2E41"/>
<path d="M219.824 56.7104C222.8 56.7104 225.212 54.2979 225.212 51.3219C225.212 48.346 222.8 45.9335 219.824 45.9335C216.848 45.9335 214.436 48.346 214.436 51.3219C214.436 54.2979 216.848 56.7104 219.824 56.7104Z" fill="#3F3D56"/>
<path d="M76.5063 91.4271C77.8987 91.4271 79.0275 90.2983 79.0275 88.9059C79.0275 87.5134 77.8987 86.3846 76.5063 86.3846C75.1138 86.3846 73.985 87.5134 73.985 88.9059C73.985 90.2983 75.1138 91.4271 76.5063 91.4271Z" fill="#2F2E41"/>
<path d="M76.5063 97.8703C77.8987 97.8703 79.0275 96.7415 79.0275 95.3491C79.0275 93.9566 77.8987 92.8278 76.5063 92.8278C75.1138 92.8278 73.985 93.9566 73.985 95.3491C73.985 96.7415 75.1138 97.8703 76.5063 97.8703Z" fill="#2F2E41"/>
<path d="M176.758 101.209C178.151 101.209 179.279 100.08 179.279 98.6874C179.279 97.2949 178.151 96.1661 176.758 96.1661C175.366 96.1661 174.237 97.2949 174.237 98.6874C174.237 100.08 175.366 101.209 176.758 101.209Z" fill="#2F2E41"/>
<path d="M184.882 101.209C186.275 101.209 187.403 100.08 187.403 98.6874C187.403 97.2949 186.275 96.1661 184.882 96.1661C183.49 96.1661 182.361 97.2949 182.361 98.6874C182.361 100.08 183.49 101.209 184.882 101.209Z" fill="#2F2E41"/>
<path d="M209.324 127.962H60.5706C59.9393 127.961 59.3341 127.71 58.8877 127.264C58.4413 126.817 58.1902 126.212 58.1895 125.581V113.815C58.1902 113.184 58.4413 112.578 58.8877 112.132C59.3341 111.686 59.9393 111.434 60.5706 111.434H209.324C209.955 111.434 210.561 111.686 211.007 112.132C211.453 112.578 211.705 113.184 211.705 113.815V125.581C211.705 126.212 211.453 126.817 211.007 127.264C210.561 127.71 209.955 127.961 209.324 127.962Z" fill="#2F2E41"/>
<path d="M97.2688 34.5357H177.108C177.703 34.5357 178.273 34.7718 178.693 35.1921C179.113 35.6124 179.349 36.1824 179.349 36.7768V76.1414C179.349 76.7358 179.113 77.3058 178.693 77.7261C178.273 78.1464 177.703 78.3825 177.108 78.3825H97.2688C96.6744 78.3825 96.1043 78.1464 95.6841 77.7261C95.2638 77.3058 95.0276 76.7358 95.0276 76.1414V36.7768C95.0276 36.4825 95.0856 36.1911 95.1982 35.9192C95.3109 35.6473 95.4759 35.4002 95.6841 35.1921C95.8922 34.984 96.1392 34.8189 96.4111 34.7063C96.683 34.5937 96.9744 34.5357 97.2688 34.5357Z" fill="white"/>
<path d="M112.227 46.4995C114.596 46.4995 116.516 44.5789 116.516 42.2097C116.516 39.8405 114.596 37.9199 112.227 37.9199C109.857 37.9199 107.937 39.8405 107.937 42.2097C107.937 44.5789 109.857 46.4995 112.227 46.4995Z" fill="#B07EF9"/>
<path d="M129.374 53.0197H109.214C108.876 53.0199 108.551 52.8859 108.311 52.6469C108.072 52.4079 107.936 52.0835 107.936 51.745C107.935 51.4066 108.069 51.0816 108.307 50.8416C108.546 50.6015 108.87 50.466 109.209 50.4648H129.374C129.542 50.4645 129.708 50.4972 129.863 50.5612C130.019 50.6251 130.16 50.719 130.279 50.8375C130.397 50.956 130.492 51.0967 130.556 51.2517C130.621 51.4066 130.654 51.5728 130.654 51.7406C130.654 51.9084 130.622 52.0746 130.557 52.2298C130.493 52.3849 130.399 52.5259 130.281 52.6446C130.162 52.7634 130.022 52.8577 129.867 52.922C129.712 52.9864 129.545 53.0196 129.378 53.0197H129.374Z" fill="#CCCCCC"/>
<path d="M118.942 58.0673H109.214C108.875 58.0678 108.55 57.9337 108.31 57.6945C108.07 57.4553 107.935 57.1306 107.935 56.7918C107.934 56.453 108.068 56.1279 108.308 55.8879C108.547 55.648 108.872 55.5129 109.21 55.5124H118.942C119.281 55.5129 119.605 55.6477 119.844 55.8872C120.084 56.1267 120.218 56.4514 120.218 56.7899C120.218 57.1283 120.084 57.453 119.844 57.6925C119.605 57.932 119.281 58.0668 118.942 58.0673H118.942Z" fill="#CCCCCC"/>
<path d="M166.352 67.867H112.016C111.677 67.8672 111.352 67.7329 111.112 67.4937C110.873 67.2545 110.738 66.9299 110.737 66.5913C110.737 66.2526 110.871 65.9277 111.11 65.6878C111.349 65.448 111.674 65.3129 112.012 65.3122H166.352C166.52 65.3119 166.687 65.3446 166.842 65.4085C166.997 65.4725 167.138 65.5664 167.257 65.6848C167.376 65.8033 167.47 65.9441 167.534 66.099C167.599 66.254 167.632 66.4201 167.632 66.5879C167.633 66.7558 167.6 66.922 167.536 67.0771C167.472 67.2322 167.378 67.3732 167.259 67.492C167.141 67.6108 167 67.705 166.845 67.7694C166.69 67.8337 166.524 67.8669 166.356 67.867H166.352Z" fill="#CCCCCC"/>
<path d="M155.921 72.9147H112.016C111.677 72.9142 111.353 72.7794 111.114 72.5399C110.874 72.3003 110.74 71.9757 110.74 71.6372C110.74 71.2987 110.874 70.9741 111.114 70.7346C111.353 70.4951 111.677 70.3602 112.016 70.3597H155.921C156.259 70.3602 156.584 70.4951 156.823 70.7346C157.062 70.9741 157.196 71.2987 157.196 71.6372C157.196 71.9757 157.062 72.3003 156.823 72.5399C156.584 72.7794 156.259 72.9142 155.921 72.9147V72.9147Z" fill="#CCCCCC"/>
<path d="M18.3018 125.92L18.0223 119.636C15.1085 118.078 11.8586 117.255 8.55481 117.239C13.1019 120.957 12.5336 128.123 15.6164 133.122C16.5899 134.674 17.9 135.987 19.4499 136.963C20.9997 137.94 22.7494 138.555 24.5694 138.764L28.3746 141.094C28.8967 138.183 28.7816 135.193 28.0371 132.331C27.2927 129.469 25.9367 126.803 24.0624 124.515C22.9983 123.243 21.7781 122.109 20.4306 121.141C19.5193 123.544 18.3018 125.92 18.3018 125.92Z" fill="#F2F2F2"/>
<path d="M39.0881 72.5607C39.4262 72.3475 39.7134 72.0627 39.9296 71.7264C40.1457 71.3902 40.2855 71.0106 40.3391 70.6145C40.3926 70.2184 40.3587 69.8153 40.2397 69.4337C40.1206 69.0522 39.9194 68.7013 39.65 68.4059L48.7229 48.3016L43.6921 48.7324L35.6242 68.3405C35.158 68.8258 34.886 69.4653 34.8597 70.1378C34.8334 70.8102 35.0548 71.4689 35.4817 71.9891C35.9087 72.5093 36.5116 72.8548 37.1763 72.9601C37.841 73.0655 38.5212 72.9234 39.0881 72.5607L39.0881 72.5607Z" fill="#9E616A"/>
<path d="M55.5716 29.4036L53.167 26.5427C53.167 26.5427 51.7964 26.3421 49.1297 30.2947C46.5048 34.1852 42.5514 42.4432 44.6174 43.6163L35.4468 63.2029L41.2957 65.9659L51.1563 44.8202L55.5281 38.8715L55.5716 29.4036Z" fill="#E6E6E6"/>
<path d="M51.0815 63.0877L67.8898 62.8076L69.2905 51.3219H51.0815V63.0877Z" fill="#9E616A"/>
<path d="M66.6202 133.355L70.5004 133.355L72.3466 118.388L66.6197 118.388L66.6202 133.355Z" fill="#9E616A"/>
<path d="M41.8997 133.303L45.7799 133.276L47.521 118.296L42.4746 119.454L41.8997 133.303Z" fill="#9E616A"/>
<path d="M54.0359 41.4305L53.1568 43.7164L53.3324 46.0023L70.5399 51.9623L69.6861 41.958L67.7517 39.6721L54.0359 41.4305Z" fill="#FFB6B6"/>
<path d="M61.418 20.8591C64.8122 20.8591 67.5638 18.1075 67.5638 14.7133C67.5638 11.3191 64.8122 8.5675 61.418 8.5675C58.0238 8.5675 55.2722 11.3191 55.2722 14.7133C55.2722 18.1075 58.0238 20.8591 61.418 20.8591Z" fill="#9E616A"/>
<path d="M65.6579 131.441L71.7919 131.075V133.703L77.6236 137.731C77.9116 137.93 78.1286 138.215 78.2427 138.546C78.3569 138.877 78.3623 139.236 78.2581 139.57C78.1539 139.904 77.9456 140.196 77.6637 140.404C77.3817 140.611 77.0408 140.723 76.6908 140.723H69.3881L68.1294 138.124L67.6379 140.723H64.8845L65.6579 131.441Z" fill="#2F2E41"/>
<path d="M40.5724 131.398L46.7036 130.989L46.722 133.617L52.5818 137.604C52.8712 137.801 53.0901 138.085 53.2066 138.415C53.323 138.745 53.3309 139.104 53.2291 139.439C53.1273 139.774 52.921 140.067 52.6405 140.277C52.3601 140.486 52.02 140.6 51.6699 140.603L44.3674 140.654L43.0905 138.063L42.6173 140.666L39.864 140.685L40.5724 131.398Z" fill="#2F2E41"/>
<path d="M40.6923 122.651L43.5178 100.066L45.163 78.5174C44.3226 68.7126 49.961 57.4849 49.961 57.4849L52.1665 47.7022L68.454 60.8636L68.4501 60.8466C72.0725 70.7265 73.2726 75.6074 73.0741 86.1286L72.3605 123.95H72.5844C72.9559 123.95 73.3121 124.098 73.5748 124.36C73.8375 124.623 73.9851 124.979 73.9851 125.351C73.9851 125.722 73.8375 126.079 73.5748 126.341C73.3121 126.604 72.9559 126.751 72.5844 126.751H65.5809C65.2094 126.751 64.8531 126.604 64.5905 126.341C64.3278 126.079 64.1802 125.722 64.1802 125.351C64.1802 124.979 64.3278 124.623 64.5905 124.36C64.8531 124.098 65.2094 123.95 65.5809 123.95H65.7615L59.3332 78.916L53.8829 97.8249L47.7199 122.477C49.961 121.917 49.613 123.215 49.613 123.95C49.613 124.322 49.4655 124.678 49.2028 124.941C48.9401 125.203 48.5838 125.351 48.2123 125.351H41.2089C40.8831 125.351 40.5675 125.238 40.3163 125.03C40.0652 124.823 39.8943 124.534 39.8331 124.214C39.7719 123.895 39.8242 123.563 39.9811 123.278C40.1379 122.992 40.3895 122.77 40.6923 122.651L40.6923 122.651Z" fill="#2F2E41"/>
<path d="M48.582 58.2204L49.1423 52.6176C49.2005 52.389 49.3295 52.1848 49.5109 52.034C49.6924 51.8833 49.9169 51.7939 50.1522 51.7786C50.3857 49.1097 51.3678 37.5956 51.4265 37.0934L51.4288 37.0722L51.8754 27.5313C51.8917 27.1848 52.0349 26.8564 52.278 26.6089C52.521 26.3613 52.8466 26.212 53.1928 26.1894L55.5518 26.0352C55.5841 26.0341 55.6148 26.0205 55.6373 25.9972C55.6598 25.9739 55.6724 25.9428 55.6724 25.9104C55.6724 25.3843 55.8814 24.8797 56.2534 24.5077C56.6254 24.1356 57.13 23.9266 57.6561 23.9266H64.6403C65.0927 23.9268 65.5295 24.0921 65.8686 24.3915C66.2078 24.6908 66.426 25.1037 66.4824 25.5525C66.4855 25.5834 66.5002 25.612 66.5234 25.6326C66.5467 25.6532 66.5769 25.6642 66.6079 25.6635L66.6088 25.6635C67.4023 25.6471 68.1755 25.9158 68.7879 26.4207C69.4004 26.9257 69.8115 27.6335 69.9467 28.4156C70.9016 33.9711 70.8541 51.6223 69.908 58.632C69.5787 61.0722 70.2887 59.1395 70.4132 61.1812C70.4256 61.3785 70.3989 61.5763 70.3347 61.7633C70.2705 61.9502 70.17 62.1227 70.039 62.2708C70.6156 62.4383 70.8392 63.0612 70.6912 63.648L70.814 63.6176C70.7414 63.9058 70.5572 64.1533 70.3021 64.3057C70.0469 64.4581 69.7417 64.5029 69.4535 64.4303L48.5247 62.2694C47.9246 62.1182 48.4307 58.8205 48.582 58.2204Z" fill="#E6E6E6"/>
<path d="M88.961 51.5752C88.6514 51.8281 88.2902 52.01 87.9027 52.1081C87.5152 52.2062 87.1109 52.2182 86.7182 52.1432C86.3256 52.0681 85.9542 51.9079 85.6302 51.6738C85.3062 51.4397 85.0375 51.1374 84.8429 50.7882L75.3788 52.1627L77.3853 47.5293L86.0598 46.9501C86.6681 46.6622 87.3608 46.6074 88.0068 46.7962C88.6527 46.9849 89.207 47.404 89.5647 47.9741C89.9223 48.5442 90.0583 49.2256 89.9471 49.8893C89.8358 50.5531 89.485 51.1529 88.961 51.5752L88.961 51.5752Z" fill="#9E616A"/>
<path d="M71.371 33.7042C71.371 33.7042 72.4543 27.7143 69.2582 26.8852C66.0621 26.0561 64.3623 31.4283 64.3623 31.4283C61.7873 39.3676 61.4776 44.8367 64.2125 46.9858L64.1587 52.5651C64.1587 52.5651 84.1815 53.0689 82.5272 51.8557C80.873 50.6425 82.4568 47.2119 82.4568 47.2119L72.5833 45.8995L73.2227 44.4184L72.5517 44.5474L72.0699 43.0354L71.371 33.7042Z" fill="#E6E6E6"/>
<path d="M32.6952 18.9937C31.5615 18.009 30.4281 17.0234 29.295 16.037C29.6718 15.7453 30.0948 15.5187 30.5463 15.3665C32.2122 14.8123 34.0177 15.3036 35.7489 15.5763C37.4827 15.85 39.4985 15.8063 40.6806 14.5113C41.9093 13.1647 41.7037 11.1085 41.8289 9.29309C42.0007 6.75887 43.0049 4.24892 44.8106 2.46481C46.6162 0.680706 49.2477 -0.306683 51.7566 0.0852924C54.2644 0.479772 56.5428 2.33985 57.2189 4.78498C58.2404 4.87009 59.1954 5.32626 59.9035 6.06735C60.6116 6.80845 61.0239 7.78317 61.0625 8.80746C61.0677 9.76512 60.6859 10.7659 59.9011 11.3168C59.1164 11.8678 57.9143 11.8352 57.2846 11.1098L58.2022 10.1245C56.592 10.0479 54.6585 12.2537 54.265 13.818C53.8699 15.3787 54.2261 17.0221 54.6296 18.5821C55.0331 20.1422 55.4897 21.7376 55.2977 23.3374C55.0224 25.6386 53.3887 27.6302 51.3683 28.7675C49.3478 29.9049 46.981 30.2855 44.6642 30.339C42.9296 30.3796 41.1953 30.2482 39.4867 29.9467C39.9856 29.5077 40.4819 29.0677 40.9808 28.6287L36.8295 29.3391C36.1562 29.1472 35.4877 28.9281 34.8292 28.6838C32.9136 27.9686 31.0514 27.0063 29.6088 25.5622C28.1647 24.1146 27.1756 22.1321 27.2501 20.0899C27.276 19.43 27.4209 18.7803 27.6778 18.172C29.3506 18.445 31.023 18.7189 32.6952 18.9937Z" fill="#2F2E41"/>
<path d="M67.9991 8.90369C67.1179 8.21648 65.9765 7.95581 64.8634 7.8571C62.9279 6.01091 61.9003 5.16269 59.3435 5.94813C56.7866 6.73357 55.8946 9.40369 54.7906 11.84C52.1441 17.6805 60.0104 23.05 63.9323 20.2486C63.0093 19.3964 64.6743 16.6751 64.9092 15.4409C65.1075 14.4582 65.6863 13.5936 66.5194 13.0358C67.4546 13.559 68.7812 12.8929 69.1034 11.8549C69.4347 10.7876 68.8803 9.59091 67.9991 8.90369Z" fill="#2F2E41"/>
<path d="M1.46925e-06 140.974C-0.000260448 141.063 0.0345053 141.147 0.0966517 141.21C0.158798 141.272 0.243235 141.308 0.331386 141.308H267.667C267.755 141.308 267.84 141.273 267.902 141.21C267.965 141.148 268 141.063 268 140.974C268 140.886 267.965 140.801 267.902 140.739C267.84 140.676 267.755 140.641 267.667 140.641H0.333367C0.245219 140.641 0.160575 140.676 0.098058 140.738C0.0355406 140.8 0.000269281 140.884 1.46925e-06 140.972V140.974V140.974Z" fill="#CCCCCC"/>
<path d="M183.271 140.66H88.8646C87.5502 140.659 86.485 140.009 86.4835 139.207V126.894C86.485 126.092 87.5502 125.442 88.8646 125.441H183.271C184.586 125.442 185.651 126.092 185.652 126.894V139.207C185.651 140.009 184.586 140.659 183.271 140.66Z" fill="#2F2E41"/>
<path d="M175.988 137.859H96.1482C94.9105 137.859 93.9071 137.251 93.9071 136.501V119.095C93.9071 118.345 94.9105 117.737 96.1482 117.737H175.988C177.225 117.737 178.229 118.345 178.229 119.095V136.501C178.229 137.251 177.225 137.859 175.988 137.859Z" fill="white"/>
<path d="M107.802 127.379H162.139C162.478 127.379 162.802 127.513 163.042 127.753C163.282 127.992 163.417 128.316 163.417 128.655C163.418 128.994 163.284 129.319 163.045 129.558C162.805 129.798 162.481 129.933 162.142 129.934H107.802C107.463 129.935 107.138 129.801 106.898 129.562C106.658 129.323 106.522 128.999 106.522 128.66C106.521 128.321 106.654 127.996 106.893 127.756C107.132 127.516 107.457 127.38 107.796 127.379H107.802Z" fill="#CCCCCC"/>
<path d="M118.234 122.332H162.139C162.478 122.332 162.803 122.466 163.042 122.706C163.282 122.945 163.417 123.27 163.417 123.609C163.417 123.948 163.282 124.273 163.042 124.512C162.803 124.752 162.478 124.886 162.139 124.886H118.234C118.066 124.887 117.9 124.854 117.745 124.79C117.59 124.726 117.449 124.633 117.33 124.514C117.211 124.396 117.116 124.255 117.052 124.1C116.987 123.946 116.954 123.78 116.954 123.612C116.953 123.444 116.986 123.278 117.05 123.123C117.114 122.968 117.208 122.827 117.326 122.708C117.444 122.589 117.585 122.494 117.74 122.43C117.895 122.365 118.061 122.332 118.228 122.332H118.234V122.332Z" fill="#CCCCCC"/>
<path d="M59.1974 5.68139C58.2126 7.12392 57.1186 8.7244 55.3833 9.30859C55.2772 9.34038 55.1875 9.41187 55.1329 9.50816C55.0782 9.60445 55.0628 9.71812 55.0898 9.8255C55.1204 9.93237 55.1916 10.023 55.2883 10.0779C55.385 10.1327 55.4993 10.1475 55.6067 10.119C57.5729 9.45708 58.8024 7.74727 59.9231 6.10557C59.9509 6.05792 59.9691 6.00525 59.9766 5.95057C59.9841 5.89589 59.9808 5.84027 59.9668 5.78688C59.9528 5.73349 59.9284 5.68339 59.895 5.63942C59.8617 5.59546 59.82 5.55849 59.7723 5.53064C59.7247 5.50279 59.672 5.4846 59.6173 5.4771C59.5626 5.4696 59.507 5.47295 59.4536 5.48695C59.4002 5.50095 59.3501 5.52532 59.3062 5.55869C59.2622 5.59205 59.2252 5.63375 59.1974 5.6814V5.68139Z" fill="#E6E6E6"/>
<path d="M220.724 51.5812H220.163V130.057H220.724V51.5812Z" fill="#2F2E41"/>
<path d="M225.773 60.7855H225.212V139.262H225.773V60.7855Z" fill="#2F2E41"/>
<path d="M230.665 60.2089H230.105V133.377H230.665V60.2089Z" fill="#2F2E41"/>
<path d="M208.366 78.864H78.3839V79.4242H208.366V78.864Z" fill="#2F2E41"/>
<path d="M208.366 105.477H78.3839V106.037H208.366V105.477Z" fill="#2F2E41"/>
</g>
<defs>
<clipPath id="clip0_1025_320">
<rect width="268" height="141.308" fill="white"/>
</clipPath>
</defs>
</svg>
